<svg xmlns="http://www.w3.org/2000/svg" width="52.656" height="39.656" viewBox="0 0 52.656 39.656">
  <defs>
    <style>
      .cls-1 {
        fill: #e54530;
        fill-rule: evenodd;
      }
    </style>
  </defs>
  <path id="_" data-name="“" class="cls-1" d="M5.625,11.134Q0.6,17.666.6,28.328V40.643H23.55V23.373l-8.25-1.5a22.049,22.049,0,0,1,2.325-8.41A52.067,52.067,0,0,1,22.05,6.1L19.2,1A32.732,32.732,0,0,0,5.625,11.134Zm29.7,0Q30.3,17.666,30.3,28.328V40.643H53.25V23.373L45,21.871a22.049,22.049,0,0,1,2.325-8.41A52.067,52.067,0,0,1,51.75,6.1L48.9,1A32.732,32.732,0,0,0,35.325,11.134Z" transform="translate(-0.594 -1)"/>
</svg>
