<svg xmlns="http://www.w3.org/2000/svg" width="766" height="484.563" viewBox="0 0 766 484.563">
  <defs>
    <style>
      .cls-1 {
        fill: #d3d2d3;
        fill-rule: evenodd;
        opacity: 0.2;
      }
    </style>
  </defs>
  <path class="cls-1" d="M-117.057,486.911c-13.919-1.172-28.219-2.833-42.816-4.84l-3.367-16.227c14.855,2.214,29.407,4.071,43.567,5.42,42.779,4.07,82.581,3.93,119.029-1.267,34.322-4.9,66.022-14.39,94.628-28.155,53.934-25.981,98.119-68.474,134.059-116.754,34.395-46.237,61.724-97,87.152-144.134,23.238-43.079,44.075-81.84,66.55-110.063,19.422-24.371,40.84-40.071,62.593-42.248,41.859-4.118,86.434,39.277,127.371,80.306,36.943,37.025,71.03,68.71,92.584,58.373,21.156-10.222,28.5-53.476,35.67-94.374,6.554-37.386,13.2-71.015,27.387-72.454,14.608-1.426,32.018,25.233,49.567,50.853q0.474,1.851.954,3.7C760.348,29.539,742.922,2.98,728.385,4.569c-14.2,1.606-20.754,35.424-27.26,73.021-7.119,41.13-14.365,84.6-35.513,95.123-21.437,10.587-55.538-20.805-92.43-57.555C532.3,74.433,487.706,31.375,446,35.967,424.266,38.4,402.912,54.4,383.548,79.077c-22.423,28.6-43.192,67.74-66.366,111.257-25.358,47.619-52.606,98.9-86.931,145.732-35.854,48.89-79.936,92.073-133.829,118.811C67.859,469.031,36.2,478.932,1.894,484.257-34.515,489.9-74.292,490.5-117.057,486.911Z" transform="translate(0 -0.438)"/>
</svg>
