<svg width="798" height="76" viewBox="0 0 798 76" fill="none" xmlns="http://www.w3.org/2000/svg">
<g clip-path="url(#clip0_37_2)">
<path fill-rule="evenodd" clip-rule="evenodd" d="M30.62 73.683H45.436V14.651H30.62V73.683ZM-0.0140381 14.651H75.958V1.21899H-0.0140381V14.651Z" fill="#181513"/>
<path fill-rule="evenodd" clip-rule="evenodd" d="M116.042 6.63794H220.39C223.435 6.63755 226.451 7.23703 229.265 8.40216C232.078 9.56729 234.635 11.2752 236.788 13.4285C238.942 15.5817 240.65 18.1381 241.816 20.9516C242.981 23.7651 243.581 26.7806 243.581 29.8259V44.3619C243.581 47.407 242.981 50.4223 241.816 53.2356C240.651 56.0489 238.943 58.6051 236.789 60.7583C234.636 62.9115 232.08 64.6196 229.267 65.7849C226.453 66.9502 223.438 67.5499 220.393 67.5499H116.042C112.997 67.5499 109.982 66.9502 107.168 65.7849C104.355 64.6196 101.799 62.9115 99.6456 60.7583C97.4924 58.6051 95.7844 56.0489 94.6191 53.2356C93.4538 50.4223 92.854 47.407 92.854 44.3619V29.8259C92.854 26.7808 93.4538 23.7656 94.6191 20.9523C95.7844 18.139 97.4924 15.5828 99.6456 13.4295C101.799 11.2763 104.355 9.56833 107.168 8.40302C109.982 7.23772 112.997 6.63794 116.042 6.63794Z" stroke="#E54530" stroke-width="11"/>
<path fill-rule="evenodd" clip-rule="evenodd" d="M283.181 73.909V47.141H311.121C314.724 47.0444 318.326 47.3462 321.862 48.041C324.347 48.641 326.072 49.705 327.038 51.233C328.108 53.2039 328.609 55.4336 328.485 57.673V73.913H343.285V56.661C343.285 52.629 342.452 49.5863 340.785 47.533C339.115 45.48 336.585 44.168 333.272 43.277C330.499 42.4572 327.657 41.8938 324.781 41.594H325.781C327.464 41.7129 329.156 41.6387 330.822 41.373C333.483 40.8123 335.979 39.6431 338.113 37.957C340.228 36.4635 341.932 34.4603 343.066 32.133C344.326 29.3976 344.936 26.4074 344.847 23.397C344.847 18.3203 343.697 14.1576 341.396 10.909C338.999 7.58792 335.637 5.08528 331.768 3.74097C327.101 2.11949 322.183 1.3407 317.243 1.44097H268.381V73.909H283.181V73.909ZM283.181 14.209H317.24C321.395 14.209 324.568 15.0676 326.757 16.785C327.86 17.685 328.733 18.8345 329.304 20.1387C329.875 21.4428 330.127 22.864 330.04 24.285C330.113 25.8037 329.857 27.3201 329.29 28.7311C328.724 30.142 327.86 31.4142 326.757 32.461C324.567 34.477 321.395 35.485 317.24 35.485H283.181V14.213V14.209ZM429.656 47.809C428.633 50.7699 426.938 53.4534 424.703 55.649C422.241 58.0082 419.271 59.7708 416.021 60.801C411.936 62.079 407.67 62.6846 403.391 62.594C397.913 62.705 392.467 61.7345 387.364 59.738C383.06 58.0673 379.344 55.165 376.681 51.394C374.053 47.3745 372.732 42.6413 372.897 37.842C372.897 32.3926 374.158 27.8193 376.681 24.122C379.331 20.324 383.051 17.4 387.367 15.722C392.47 13.7255 397.916 12.7549 403.394 12.866C407.692 12.78 411.976 13.386 416.081 14.661C419.362 15.6872 422.355 17.4713 424.818 19.869C427.075 22.1365 428.738 24.9255 429.66 27.989H444.351C443.912 22.4766 441.817 17.2257 438.341 12.925C434.609 8.55925 429.79 5.256 424.372 3.34897C417.639 0.971954 410.53 -0.164757 403.391 -0.00603099C397.132 -0.0736943 390.894 0.734126 384.859 2.39397C379.616 3.82054 374.701 6.25526 370.39 9.56197C366.367 12.7062 363.143 16.7557 360.981 21.381C358.657 26.5523 357.516 32.1769 357.642 37.845C357.512 43.4953 358.653 49.1027 360.981 54.253C363.146 58.8426 366.37 62.8526 370.387 65.953C374.705 69.2243 379.62 71.6211 384.856 73.009C390.897 74.634 397.132 75.4253 403.388 75.361C410.5 75.5175 417.584 74.418 424.314 72.113C429.705 70.2688 434.508 67.0214 438.227 62.705C441.7 58.4554 443.831 53.2689 444.348 47.805H429.659L429.656 47.809ZM521.537 54.809C519.246 57.7778 516.037 59.9045 512.41 60.857C508.183 61.9921 503.819 62.5386 499.443 62.481C494.957 62.5422 490.483 61.9959 486.143 60.857C482.487 59.9347 479.251 57.8032 476.96 54.809C474.734 51.8603 473.621 47.5483 473.621 41.873V1.44497H458.821V43.445C458.735 47.7187 459.433 51.972 460.881 55.994C462.133 59.3874 464.086 62.4786 466.614 65.066C469.135 67.5811 472.097 69.6121 475.351 71.058C478.919 72.6445 482.68 73.7541 486.537 74.358C490.806 75.0449 495.124 75.382 499.448 75.366C503.643 75.3809 507.832 75.0437 511.97 74.358C515.77 73.7383 519.474 72.6291 522.989 71.058C526.267 69.5943 529.262 67.5661 531.838 65.066C534.424 62.5041 536.418 59.4077 537.681 55.994C539.128 51.9736 539.827 47.722 539.741 43.45V1.44997H524.941V41.877C524.937 47.555 523.803 51.867 521.54 54.813L521.537 54.809ZM556.881 1.44497V73.909H619.545V61.477H571.681V1.44497H556.881ZM642.696 73.909L667.928 17.26L694.564 73.909H710.701L676.531 1.44497H660.503L626.666 73.909H642.694H642.696ZM735.968 73.909V47.141H763.905C767.508 47.0444 771.11 47.3462 774.646 48.041C777.131 48.641 778.856 49.705 779.822 51.233C780.892 53.2039 781.393 55.4336 781.269 57.673V73.913H796.069V56.661C796.069 52.629 795.236 49.5863 793.569 47.533C791.899 45.48 788.993 43.805 785.784 42.594C782.984 41.539 783.977 41.669 778.784 41.594H779.784C781.062 41.6255 782.341 41.5516 783.607 41.373C786.271 40.8202 788.768 39.6502 790.898 37.957C793.013 36.4635 794.716 34.4603 795.851 32.133C797.111 29.3975 797.72 26.4074 797.631 23.397C797.631 18.3203 796.481 14.1576 794.181 10.909C791.783 7.5881 788.422 5.08551 784.553 3.74097C779.886 2.11949 774.968 1.3407 770.028 1.44097H721.162V73.909H735.962H735.968ZM735.968 14.209H770.027C774.182 14.209 777.354 15.0676 779.543 16.785C780.646 17.6848 781.52 18.8343 782.091 20.1384C782.662 21.4426 782.914 22.8639 782.827 24.285C782.9 25.8038 782.644 27.3204 782.077 28.7313C781.51 30.1423 780.646 31.4144 779.543 32.461C777.354 34.477 774.182 35.485 770.027 35.485H735.966V14.213L735.968 14.209Z" fill="#181513"/>
</g>
<defs>
<clipPath id="clip0_37_2">
<rect width="797.625" height="75.375" fill="white"/>
</clipPath>
</defs>
</svg>
